<svg id="Layer_1" data-name="Layer 1" xmlns="http://www.w3.org/2000/svg" viewBox="0 0 300 300"><path d="m232.5,99.15c-.85-.11-1.7-.21-2.54-.32-15.53-1.28-30.74.81-47.85.07-12-1.07-25.53.53-37.43.95,28.3.64,57.82-1.96,85.48,1.74-2.55,2.38-5.68,4.35-9.51,4.68-9.28-.03-18.41.07-27.45.29-.06-.91-.18-2.68-.24-3.57-12.69,2.2-25.14,1.8-37.54,1.43-12.41-.37-24.76-.62-37.52,1.88.92.46.4,1.2.22,1.79-.06,0-.12,0-.18,0,.06,0,.12,0,.18,0-.16.51-.05.91,1.55.87-1.6.04-1.71-.36-1.55-.87,25.2-1.4,48.76-1.57,74.04-1.51-19.59.49-38.78,1.42-58.1,2.24-19.33.82-38.8,1.5-58.87,1.34-1.71-.01-5.13-.04-6.84-.05-6.81-2.8-13.62-3.8-20.44-3.98,1.8-4.46-4.75-13.61,8.76-11.5.02-.9.05-2.7.07-3.6-13.46-4.81-18.03-17.53-4.6-20.81,15.06-3.25,35.02.53,53.35-1.52,13.33-1.06,26.59-2.32,39.97-1.03,18.44,1.99,38.37-.02,56.96,2.15,6.75.41,18.18-3.29,21.75-.9,2.51,1.06,2.78,2.96,2.61,5.12-11.02.68-22,1.49-32.87,1.84-13.38-.08-26.76-.41-40.13-1.63,13.11,1.91,26.54,2.09,40.13,1.63,10.88.08,21.77-.08,32.69-.09-.23,1.87-.44,3.81.39,5.52,0,0,3.36-.31,5.04-.47,7.15,3.85,6.11,10.28,3.14,15.07-.78.99-1.65,2.11-2.64,3.23Z" fill="#b0df6c"></path><g><path d="m54.04,136.4c.2.09.41.17.6.26-.38.17-.95.18-1.61.1,6.33,2.06,14.65.69,19.98-1.47,1.93.05,3.64-.6,3.82-1.46.17-.86-1.27-1.59-3.21-1.64-.43-.09-.93-.16-1.24-.3-2.8-1.29-6.2-2.15-9.95-2.78.72.24,1.48.49,2.2.72-1.08-.19-2.15-.4-3.36-.4.13.15.29.32.42.47-3.73-1.09-8.83-.65-11.39,1-2.57,1.65-1.65,3.87,2.09,4.97l1.66.53Z" fill="#2c2c2c"></path><path d="m61.05,141.29c-2.24-.54-4.39-1.12-6.55-1.72l-.43-.29.15,1.31.04-.08c2-1.12,5.32-1.58,8.37-1.93l1.09-.2c.52-.18.86-.44.97-.71.25-.63-.71-1.21-2.13-1.3l-1.64-.1c-4-.72-10.28-.7-12.49,1.54-.5.52-.05,1.17.06,1.76-.15.87,1.36,1.61,3.36,1.66,2,.04,3.71-.62,3.84-1.5.34.06.69.12,1.02.17-.26.11-.53.21-.8.32.56-.76,2.38-.95,3.73-1.36l2.03-.23-1.17-2.02-1.05.28c.08.09.24.21.22.22-2.01.57-3.89,1.14-6.09,1.52l-2.77.76c-.75.39-.67.96.15,1.31l1.23.43c-.19-.09-.37-.17-.56-.25,2.84.44,5.83.68,8.64,1.14.44.09.98,0,1.22-.2.2-.2,0-.44-.46-.52Z" fill="#2c2c2c"></path><g><path d="m51.04,141.64c-.46-.15-.9-.31-1.56-.27-.16.09-.24.14-.28.16.24.09.57.22.9.34.65.24.98.05.94-.23Z" fill="#2c2c2c"></path><path d="m49.2,141.54c-.23-.09-.38-.14-.38-.14.09.07.17.13.25.19.07-.02.07-.02.07-.02,0,0,0,0,.05-.03Z" fill="#2c2c2c"></path><path d="m172.93,135.03c8.78.1,17.59.03,26.39-.14.3,0,.54-.11.55-.24,0-.11-.22-.21-.5-.2-8.81.16-17.57.22-26.35.12-.29,0-.53.11-.57.23,0,.13.2.23.48.23Z" fill="#2c2c2c"></path><path d="m239.22,144.53c-.2.11-.19.24.03.32.19.07.52.06.73-.04.17-.09.16-.25-.03-.31-.22-.08-.55-.05-.72.04Z" fill="#2c2c2c"></path><path d="m237.86,154.47c-1.23.25-2.39.52-3.41.91-.19.06-.41.06-.58.02.08.2-.14.39-.58.5-8.69,2.14-18.11,3.27-27.37,4.59-.05.17-.17.33-.37.49-.62.54-1.9.86-3.25.82l-1.02-.08c-4.1-.12-8.19-.16-12.27-.32-.82.27-1.78.46-2.83.55-3.49.77-7,1.52-10.59,2.1.23.13.38.29.38.48-.05.44-.88.8-1.85.81l-1.47.08c1.42.06,2.83.12,4.25.18.2,0,.39.02.57.05,1.55-.04,3.11-.11,4.7-.22,13.87-.93,26.84-3.18,39.68-5.72.21-.08.54-.09.73,0,.13.1.12.24-.12.31-8.04,2.59-14.97,5.8-24.14,7.63-10.92,2.2-21.72,4.05-32.96,5.57-11.79.4-22.68,1.81-34.69,2.9-16.23,1.5-31.6,2-47.52,2.35-5.96.44-11.45-1.31-12.25-3.87-.47-1.56.86-3.05,3.3-4.08-.49,0-.97,0-1.45-.01l-2.3-.28c-2.18-.28-4.05-.9-5.23-1.76l-1.62-1.06c-2.16-2.02-5.65-3.72-7.42-5.85l.39-.81-.42-.23c-1.37-.58-2.3-1.35-2.62-2.17l.12-.98c.28-1.12.95-2.18,2.04-3.18-.04-.42.09-.82.37-1.21-.94-1-1.39-2.04-.66-3.21-.56-.28-.47-.71.19-.96.23-.08.51-.14.79-.16,0,0,0,0,0,0-.31-.25-.4-.33-.82-.61-.56-.09-.88-.14-.88-.14q-1.48-.17-2.77-.32c-1.11-.34-1.8-.81-1.8-.81q-1.24-1.74-1.05-2.5c.07-.07.15-.15.24-.22-.98-.24-1.05-.26-1.31-.34-.28-.13-.47-.29-.47-.29q-.05-.41-.21-.55c-.05-.16-.04-.31-.04-.31q.54-.46.56-.58c.13-.12.31-.22.31-.22.64-.14.89-.2,1-.22,1.38,1.04,1.38,1.04,1.38,1.04l.3-.36.32.48-.18-.44.7.26-.8-.38q1.64.15,2.3.13c.68.05,1.27-.06,1.34-.07-.06-.14-.06-.24-.06-.24q1.76.17,3.47.33c.16.1.29.19.4.29.16-.12.49-.2.83-.16l.9.07c.07-.02.13-.04.19-.06,0-.02,0-.03,0-.03.3-.09.52-.15.76-.22.15-.05.16-.05.16-.05h0c.52-.14,1.27-.36,3.27-.93.53.05,1.03.11,1.5.19-.15-.06-.3-.13-.44-.19-.28-.14-.03-.53-.18-.56-3.76-.78-7.84-1.08-11.87-1.49-.72.05-1.4-.17-1.51-.49-.1-.32.42-.61,1.16-.66,8.14-2.16,18.14-1.98,26.55-.44,2.21.17,4.43.31,6.66.45l-.32-.19,1.73.27h.19c-.44-.22-.88-.45-1.32-.68-.3-.06-.6-.13-.91-.19-5.16-.22-9.86-1.25-14.85-1.89-2.68-.35-4.99-1-7.52-1.48-.65-.03-1.11-.28-1.03-.57.07-.28.68-.48,1.31-.46,8.43-.58,18.07-.27,24.87,2.04,1.54-.01,3.03.16,4.27.57h.07c-.33-.19-.63-.37-.96-.57,1.15.13,1.78.6,2.83.79-.13-.26-.27-.54-.4-.8,5.7.41,11.84.04,17.13,1.1.21.01.41.04.61.06,2.25-.62,4.53-1.22,7.22-1.36-.91-.07-1.8-.13-2.72-.19,1.94-.39,3.87-.68,5.96-.69,5.66-.06,12.02,1,15.07,3.04,10.96-.58,21.93-1.13,32.85-2.06.56-.06,1.08.1,1.19.33.07.23-.3.48-.86.53-7.82,1.13-15.76,1.84-23.73,2.46,6.68.22,13.4.37,20.24.22.87-.07,1.74-.13,2.62-.2.87-.07,1.73-.03,2.59.03,8.73-.31,17.03-.51,25.9-1.5,7.58-.85,14.21-1.71,21.74-2.83,10.58-1.58,20.2-3.14,30.69-3.75,1.39-.15,2.71.22,2.91.82.2.6-.78,1.22-2.17,1.37-21.78,3.13-43.2,6.49-66.15,7.12-2.48.06-4.91.12-7.33.18.03.08.07.16.07.25.01.33-.21.65-.58.93,2.75-.03,5.53,0,8.32.06,7.7-1.01,15.41-2.05,23.67-2.07,5.67,0,10.83.47,16.09.87,6.61-.71,13.2-1.55,19.88-2.24.26-.06.55-.01.65.1.1.11-.03.24-.3.3-4.56,1.02-9.25,1.83-13.99,2.6.77.34,1.24.81,1.21,1.36-.03.57-.59,1.1-1.46,1.5l3.24-.13c.67-.02,1.21.17,1.2.45,0,.31-.52.55-1.15.58-4.41.18-8.82.37-13.22.55-5.27.58-10.53,1.08-15.81,1.55.75.34,1.31.77,1.59,1.27h0c.82-.04,1.64-.09,2.45-.15,14.9-2.27,30.16-3.92,45.6-4.5.3-.02.56.07.57.2.01.13-.21.25-.49.26-4.66.17-9.31.45-13.94.8h.02c.19.07.23.22.03.32-.17.09-.54.11-.73.05-.22-.08-.21-.22-.04-.31-8.62.68-17.16,1.65-25.59,2.85,7.86-.51,15.71-.98,23.58-1.16.85-.2,1.69-.41,2.55-.62.23-.04.55.02.65.13.07.1-.09.24-.34.29l-.71.16c1.49-.03,2.67.45,2.68,1.12-.04.69-1.29,1.29-2.84,1.34-4.13.35-8.25.64-12.37.88l-1.33.19-1.33.39c6.43-.05,12.84-.08,19.23-.07.55-.04,1.02.13,1.05.37.03.24-.4.46-.95.5-11.16,1.56-22.49,2.8-33.88,3.76-3.7,1.2-7.41,2.42-11.19,3.6.48,0,.97-.01,1.46-.03,12.42-.56,22.81-3.99,34.78-5.23.3-.05.55.04.6.16.04.12-.16.25-.46.27-5.84.72-11.14,1.98-16.92,2.97-4.79.83-9.35,1.57-13.8,2.55,9.15-.7,17.88-2.39,26.91-3.43.39-.08.8-.04,1.05.07.02-.07.1-.13.21-.18,1.12-.39,2.34-.69,3.59-.95.24-.07.55-.03.68.09.13.1,0,.22-.28.31Zm-159.61-8.71c-.09-.05-.16-.1-.23-.14.25.07.51.15.8.23l1.13.95s-.85-.52-1.7-1.05Zm-13.95,3.74s0,0,0,0c-.38-.31-.65-.54-.65-.54.26.22.47.39.64.54Zm89.13-10.4c-4.8.14-9.55.05-14.31-.41,1.16-.09,2.31-.18,3.46-.27,3.6.18,7.21.41,10.85.68Zm-84.6,3.11c1.27.49,2.26,1.1,3.2,1.73.83-.12,1.7-.18,2.58-.17,2.36.04,4.67.13,6.94.28-.3-.34.24-.3.52-.35.29-.03.57-.06.85-.1-2.42-.21-4.85-.44-7.32-.69-2.23-.22-4.65-.35-6.77-.71Zm-16.87,1.48c-.07-.04-.13-.08-.21-.12l.45-.51s-.1.27-.24.64Zm-.71.87c.11.02.22.04.35.07-.12.19-.24.12-.35-.07Zm3.18.62c-.19-.13-.3-.22-.45-.27.45.27.45.27.45.27Zm2.39,15.02l1.22-2.57-1.33,2.47.11.1Z" fill="#2c2c2c"></path></g></g><g><path d="m57.1,219.06c-.39,0-.76.02-.76.02,0,.06.01.13.02.19.27-.07.51-.14.74-.21Z" fill="#d4fc9c"></path><path d="m57.79,216.7c-.08,0-.16,0-.24,0,.03.05.03.1.05.16.06-.06.12-.11.19-.16Z" fill="#d4fc9c"></path><path d="m56.36,219.28c.07.71.41,1.42.04,2.15-.42,0-1.25.03-1.67.04-.41.4.02.78.03,1.17-.42,0-.84.02-.83.21-.26.52.2.85,1.01.95,1.75-2.23,6.32-3.12,1.43-4.53Z" fill="#d4fc9c"></path><path d="m59.66,217.63c-.73.02-1.47.03-2.2.05-.22.45-.52.91-.28,1.35,1.13-.36,1.82-.75,2.48-1.4Z" fill="#d4fc9c"></path><path d="m230.15,212.82c0-.12.03-.18.42-.02-.15,0-.28.01-.42.02,0,.11.03.27-.16.35,1.45-.26,3.15-.51,4.8-.61.21-.21.41-.43.6-.64-4.09.21-8.18.31-11.51,1.43,2.37-.06,3.99-.44,6.27-.53Z" fill="#d4fc9c"></path><path d="m235.67,210.73c.14,0,.28-.01.42-.02-.38-.17-.42-.1-.42.02Z" fill="#d4fc9c"></path><path d="m162.84,216.85c-2.52.23-4.72.96-6.95,1.66,4.74-.67,9.62-1.06,13.23-1.89-2.08.1-4.18.18-6.28.23Z" fill="#d4fc9c"></path><path d="m144.81,221.35c3.14.29,5.7-.26,8.15-.98-2.5.24-4.98.46-7.45.67-.23.1-.47.2-.69.31Z" fill="#d4fc9c"></path><path d="m148.25,220.05c2.86-.06,5.27-.78,7.64-1.54-2.68.38-5.31.85-7.64,1.54Z" fill="#d4fc9c"></path><path d="m204.48,200.76c1.87-.61,3-.88,3.65-.96.28-.28.65-.62,1.16-1.06-.11,0-.23,0-.33,0-1.93.4-3.9.76-5.88,1.11-.81.27-1.58.55-2.22.89,1.21.02,2.43.04,3.63.02Z" fill="#d4fc9c"></path><path d="m208.13,199.8c-2.4,2.39,2.53-.31,0,0h0Z" fill="#d4fc9c"></path><path d="m196.25,212.36c-.09,0-.19,0-.29,0-.28.05-.56.1-.83.15.38-.05.75-.11,1.12-.16Z" fill="#d4fc9c"></path><path d="m172.83,207.37c1.65-.12,3.3-.29,4.92-.52-3.35.29-6.73.57-9.51,1.21.42,0,.84.18,1.26.17.83-.41,2.07-.83,3.33-.86Z" fill="#d4fc9c"></path><path d="m209.25,210.24c-4.54.6-8.98,1.33-13.29,2.13-8.78.28-17.23.94-24.79,2.72-6.66,1.72-18.37,1.6-24.99,4.89.72.07,1.41.09,2.08.07-.98.29-1.89.62-2.75.99-11.03.94-21.87,1.61-33.15,1.87-1.67.04-2.92.66-4.59.69-1.69.07-3.36.15-5.02.23,0,.04.02.09.06.13-6.88.41-13.65.95-20.77,1.76-3.34.27-6.7.16-10.04.23-1.26.03-1.27-.75-2.11-.93-3.37-.9-5.9-1.62-9.67-1.93,0,0,0-.39-.01-.59-.58.08-1.09.09-1.52.03,1.75-2.24,6.31-3.12,1.42-4.53h0c.27-.08.51-.15.74-.22.03,0,.05,0,.08,0,0,0,0-.02,0-.02,1.13-.36,1.81-.75,2.48-1.41-.73.02-1.46.03-2.2.05.13-.28.22-.55.13-.83.06-.05.12-.11.19-.16.33,0,.6-.01.6-.01.1-.15.18-.31.23-.46,1.9-.89,4.91-1.39,4.31-2.19-.46-.41-1.85-.01-3.44.27-.1-.07-.21-.14-.32-.19,2.09-.24-.03-1.37,1.22-1.59,1.67-.04,3.34-.28,5.01-.31,6.81-.16,12.55-.49,19.22-1.23.29-.03.59-.06.88-.09,3.24-.32,6.3-.43,9.48-.35-.2.14-.41.27-.62.39,2.56.07,5.12.05,7.67-.31,6.26-.93,12.51-1.86,19.2-2.21,7.01-.32,13.75-.89,20.85-1.71-2.9.5-5.79.97-8.77,1.17-1.34.01-2.67.03-3.97.1,1.34.03,2.66-.01,3.97-.1,5.16-.04,10.46.07,14.38-1.86.43.15.44.35.85.34,2.93-.07,5.86.06,8.35-.78,0-.2,1.25-.22.82-.61,2.51-.25,5.43-.32,7.93-.77,1.08-.15,2.16-.55,3.23-1.04,8.95-1.26,17.8-2.52,27.46-3.74,2.4-.24,5.17-.31,7.6-.37-3.56.74-7.24,1.36-10.97,1.94-3.64-.06-7.12.02-9.96,1.09-.66.2-1.32.39-1.98.57,4.03-.53,8.02-1.07,11.94-1.67,2.15.03,4.35.12,6.5.07-.04.01-.08.03-.13.04-1.68.29-3.38.57-5.1.83-3.23-.05-6.34,0-8.99.77-.33.1-.66.2-.97.32-.66.2-1.32.39-1.98.57,2.48-.32,4.95-.66,7.4-1,1.52-.21,3.04-.43,4.54-.67.95.02,1.91.04,2.87.06-.1.05-.21.1-.3.16-.84.21-3.12,2.57-1.86,3.12,6.44-.2,15.45-1.34,15.46-1.14.43.77-10.58,2.06-10.15,2.24.62.07,1.24.13,1.86.18-.58.17-1.15.35-1.68.55-1.25.22-2.93.07-3.76.48-2.9,1.24-6.25.93-9.58,1.79-2.08.64-4.57,1.48-7.06,2.32,0,.39-1.25.22-.82.61-2.36.05-5.09.12-6.08,1.28-.06.01-.11.02-.17.04-.17,0-.4.07-.65.17-3.93-.11-6.65,1.04-10.19,1.87-1.22.13-2.47.22-3.75.25.84-.02,2.1.15,2.93-.07.28-.06.55-.12.82-.18,3.17-.33,6.18-.92,9.19-1.42.24-.12.64-.32,1-.46.22,0,.44.01.66.03.05-.08.11-.16.17-.23,2.87-.63,6.14-.91,8.58-1.54,4.62-.78,9.58-.56,14.32-.56-2.35.38-4.66.79-6.93,1.22,2.85-.4,5.53-.8,8.14-1.23.41,0,.8,0,1.2-.02l2.51-.06c-.78-.07-1.56-.12-2.33-.16,1.56-.26,3.09-.53,4.6-.83,8.36-1.11,17.01-1.79,25.5-1.68-.16.24-.35.48-.55.72-4.09.21-8.18.31-11.5,1.43,2.36-.06,3.99-.44,6.27-.53,0,.11.03.27-.16.35,1.45-.26,3.15-.51,4.8-.61-.52.52-1.1,1.03-1.68,1.55-.83.41-2.08.44-3.33.66-5.42.46-10.54.48-15.87,1.08-4.76.04-9.52.07-14.19.22,4.62-.66,8.87-1.32,13-2.12Zm-140.22,8.38c.43-.09.87-.2,1.31-.31-.07-.04-.14-.08-.2-.13-.41,0-.8.2-1.11.44Zm9.79-.04c-2.88-.27-6.65.27-10.3.66-.02.05-.03.11-.03.15,3.07.11,6.83-.46,10.33-.81Zm11.57,3.79s-.05-.04-.07-.06c0,.03,0,.06,0,.09.02,0,.04-.02.06-.03Zm50.82-7.42c-3.32,1.06-7.51,1.15-11.68,1.64-1.25.03-2.49.84-4.16.88-2.09.24-3.33.66-5,.9l1.27.36c-2.93-.13-4.58,1.09-7.52.76,0,.2-.4.6-.82.61-2.09.24-4.19-.1-5.85.33-2.09.24-4.18.29-5.84.72-.42,0-1.24.62-2.07.83-1.02.1-2.04.18-3.06.25.05.05.09.1.13.15.83-.01,1.67-.05,2.51-.2,2.5-.45,5.42-.91,7.92-1.16,6.27-.54,12.1-1.46,17.94-2.37,1.25-.22,2.5-.64,3.75-.87,3.75-.87,8.35-.78,10.83-2.21.42-.21,1.25-.23,1.66-.63Zm4.48-8.59c-4.39.93-9.27,1.43-13.44,1.36-3.35.08-12.94,1.47-11.21,3.78,4.04-4.36,27.66-.73,24.64-5.14Zm34.81-4.41c-1.74.35-3.43.66-5.42.71,1.81-.24,3.61-.48,5.42-.71Zm-17.63,8.38c5.4-1.5,11.25-1.83,16.67-2.74,4.17-.68,8.79.19,12.52-1.27,0-.2,0-.39-.01-.59l-.41.21c-1.47-.08-2.66-.37-3.9-.5.07-.02.14-.04.21-.06-.12.01-.25.03-.37.04-.82-.08-1.68-.09-2.66.09-.45.1-.9.21-1.36.3-5.22.47-10.61.9-15.32,2.24-2.91.65-5.4,1.69-8.31,2.35.83-.02,2.1.15,2.93-.07Z" fill="#d4fc9c"></path><path d="m201.52,209.96c1.8-.28,3.62-.55,5.45-.79,1.41-.28,2.81-.57,4.21-.88,6.69-1.2,14.54-1.03,21.74-1.67.2-.58.21-1.17-.06-1.77-7.85-.46-15.65.77-23.49.63-.06.02-.12.04-.18.07-3.32,1.25-8.77.99-12.93,2.06-4.15,1.27-8.33,1.76-12.49,2.83,6.04-.14,11.78-.7,17.74-.48Z" fill="#d4fc9c"></path><path d="m152.95,220.37c1.64-.15,3.28-.31,4.94-.48,4.61-.57,8.69-1.25,12.87-2.06-3.07.17-6.17.31-9.28.38-3.12.28-5.74,1.33-8.52,2.15Z" fill="#d4fc9c"></path><path d="m174.15,217.17c-1.14.23-2.27.46-3.39.67,4.56-.26,9.08-.6,13.59-.96,7.41-.97,14.82-1.84,22.22-3.04.84-.13,1.68-.23,2.51-.32-13.82.1-27.6.2-39.27,2.94-.21.06-.45.11-.68.16,5.58-.26,11.09-.68,16.59-1.11-3.86.51-7.71,1.04-11.56,1.66Z" fill="#d4fc9c"></path><path d="m199.78,210.23c.41,0,.81,0,1.21,0,.47-.08.92-.15,1.38-.23-.28-.01-.56-.02-.84-.03-.58.09-1.17.18-1.74.27Z" fill="#d4fc9c"></path><path d="m187.73,205.45c-.05,0-.1-.01-.16-.02-1.32.14-2.66.27-4.02.39-1.86.4-3.81.75-5.8,1.02,3.61-.31,7.19-.62,9.98-1.4Z" fill="#d4fc9c"></path><path d="m176.03,201.03c-.42,0-1.25.03-1.67.04-.25.12-.5.25-.75.37.39,0,.79,0,1.18.01l1.24-.42Z" fill="#d4fc9c"></path><path d="m151.41,204.77c7.4-.93,14.33-1.9,21.2-2.86.33-.15.66-.31.99-.47-4.63-.01-9.22.34-13.43,1.52-.83.22-2.07.83-2.91.85-3.96.28-7.71.99-11.46,1.64,1.79-.21,3.61-.43,5.46-.67.05,0,.1-.01.15-.02Z" fill="#d4fc9c"></path></g><g><path d="m58.58,224.86c-.41-.01-.79-.02-.79-.02,0,.06,0,.13,0,.19.29-.06.54-.11.78-.17Z" fill="#d4fc9c"></path><path d="m59.42,222.54c-.08,0-.17,0-.25,0,.03.05.03.11.04.16.06-.05.13-.1.21-.15Z" fill="#d4fc9c"></path><path d="m57.8,225.04c.04.72.35,1.44-.08,2.15-.44-.01-1.31-.04-1.75-.05-.45.38-.02.78-.03,1.17-.44-.01-.87-.03-.88.17-.3.5.16.86,1,1.01,1.95-2.14,6.76-2.78,1.73-4.44Z" fill="#d4fc9c"></path><path d="m61.33,223.57c-.77-.02-1.53-.04-2.3-.07-.25.44-.59.88-.37,1.34,1.2-.29,1.94-.65,2.67-1.27Z" fill="#d4fc9c"></path><path d="m239.56,227.93c0-.12.05-.18.44,0-.15,0-.29,0-.44,0,0,.11.01.28-.19.34,1.53-.18,3.32-.34,5.05-.35.23-.2.45-.4.66-.61-4.28,0-8.56-.13-12.09.81,2.48.07,4.19-.22,6.57-.19Z" fill="#d4fc9c"></path><path d="m245.44,226.15c.15,0,.29,0,.44,0-.39-.19-.43-.13-.44,0Z" fill="#d4fc9c"></path><path d="m169.08,228.34c-2.65.09-4.98.7-7.34,1.29,4.99-.41,10.09-.54,13.91-1.18-2.18-.01-4.37-.05-6.57-.11Z" fill="#d4fc9c"></path><path d="m150.02,231.86c3.26.46,5.97.05,8.56-.54-2.62.1-5.22.19-7.82.27-.24.09-.5.17-.74.27Z" fill="#d4fc9c"></path><path d="m153.68,230.75c2.99.1,5.54-.5,8.06-1.12-2.82.23-5.58.56-8.06,1.12Z" fill="#d4fc9c"></path><path d="m213.41,214.51c1.98-.51,3.18-.72,3.86-.77.31-.26.72-.59,1.27-.99-.11,0-.24,0-.35-.01-2.04.29-4.11.55-6.2.79-.86.22-1.68.46-2.37.77,1.26.09,2.53.17,3.79.21Z" fill="#d4fc9c"></path><path d="m217.27,213.75c-2.63,2.26,2.65-.17,0,0h0Z" fill="#d4fc9c"></path><path d="m204.2,225.66c-.1,0-.2,0-.3,0-.29.04-.59.07-.88.11.4-.03.78-.07,1.18-.1Z" fill="#d4fc9c"></path><path d="m180.02,219.41c1.73-.03,3.46-.12,5.17-.26-3.51.11-7.05.2-10,.7.44.01.87.22,1.31.23.89-.37,2.21-.72,3.52-.68Z" fill="#d4fc9c"></path><path d="m217.89,224.23c-4.77.36-9.45.85-13.99,1.42-9.18-.2-18.04.01-26.03,1.38-7.04,1.36-19.27.61-26.35,3.54.75.11,1.47.16,2.16.19-1.03.24-2.01.52-2.92.84-11.57.34-22.91.43-34.71.09-1.75-.05-3.08.5-4.83.45-1.77-.02-3.51-.03-5.25-.04,0,.04.01.09.06.13-7.21.04-14.3.22-21.78.64-3.5.09-7-.2-10.49-.31-1.31-.04-1.29-.82-2.16-1.04-3.47-1.08-6.07-1.94-9.99-2.44,0,0,.01-.39.02-.59-.61.05-1.15.03-1.59-.05,1.94-2.14,6.76-2.78,1.73-4.44,0,0,0,0,0,0,.28-.06.54-.11.78-.17.03,0,.06,0,.08,0,0,0,0-.02,0-.02,1.2-.29,1.93-.65,2.67-1.27-.77-.02-1.53-.04-2.3-.07.15-.27.25-.54.18-.82.07-.05.13-.1.21-.15.34,0,.63.02.63.02.12-.15.2-.3.26-.44,2.03-.78,5.2-1.13,4.62-1.96-.45-.43-1.93-.11-3.6.09-.1-.08-.21-.15-.33-.2,2.19-.13.04-1.37,1.36-1.53,1.75.05,3.5-.1,5.25-.04,7.12.21,13.12.19,20.13-.19.31-.02.62-.03.92-.04,3.4-.15,6.6-.09,9.91.16-.22.13-.44.25-.67.36,2.67.2,5.34.32,8.02.1,6.58-.59,13.16-1.18,20.16-1.17,7.33.06,14.4-.15,21.86-.58-3.05.35-6.1.65-9.22.7-1.4-.06-2.79-.11-4.15-.11,1.4.1,2.78.13,4.15.11,5.38.24,10.91.63,15.12-1.08.44.18.44.37.87.38,3.06.09,6.11.37,8.76-.33,0-.2,1.32-.16.89-.56,2.63-.12,5.69-.03,8.32-.34,1.14-.09,2.28-.44,3.43-.86,9.41-.77,18.72-1.56,28.86-2.26,2.52-.11,5.42-.04,7.96.04-3.76.54-7.63.97-11.56,1.34-3.79-.25-7.43-.36-10.45.56-.7.17-1.4.32-2.1.47,4.23-.31,8.43-.63,12.56-1.02,2.24.15,4.53.35,6.78.42-.05.01-.09.03-.14.04-1.77.2-3.56.38-5.36.55-3.37-.23-6.62-.33-9.43.29-.35.08-.7.16-1.03.27-.7.17-1.4.32-2.1.46,2.61-.19,5.21-.39,7.78-.6,1.6-.13,3.19-.27,4.78-.42.99.07,1.99.14,3,.21-.11.04-.22.09-.32.14-.88.17-3.4,2.39-2.11,3.02,6.73.15,16.2-.51,16.2-.31.41.8-11.15,1.48-10.72,1.69.64.11,1.29.2,1.93.28-.62.14-1.22.29-1.78.46-1.32.16-3.06-.09-3.95.28-3.09,1.08-6.58.59-10.1,1.27-2.21.52-4.85,1.23-7.49,1.94-.01.39-1.32.16-.89.56-2.47-.07-5.32-.16-6.41.95-.06.01-.12.02-.18.03-.17,0-.42.05-.69.13-4.1-.32-6.99.68-10.74,1.32-1.28.06-2.59.09-3.93.05.88.03,2.18.26,3.06.09.29-.04.58-.09.86-.14,3.33-.16,6.5-.59,9.67-.92.26-.11.68-.28,1.07-.4.23.02.45.04.68.06.06-.08.12-.15.19-.22,3.03-.47,6.45-.57,9.04-1.07,4.87-.53,10.03-.05,14.98.21-2.47.26-4.91.54-7.3.85,2.99-.25,5.82-.5,8.56-.79.42.02.84.03,1.26.05l2.63.08c-.81-.11-1.62-.2-2.43-.28,1.64-.18,3.26-.37,4.85-.58,8.79-.66,17.85-.87,26.72-.31-.18.23-.39.46-.62.69-4.28,0-8.56-.13-12.09.81,2.47.07,4.19-.22,6.57-.19,0,.11.01.27-.19.34,1.53-.18,3.32-.34,5.05-.35-.57.49-1.2.97-1.84,1.46-.89.37-2.2.33-3.52.48-5.68.17-11.03-.08-16.63.23-4.97-.22-9.94-.44-14.82-.55,4.86-.41,9.33-.84,13.69-1.42Zm-146.83.83c.45-.07.92-.15,1.38-.24-.07-.05-.14-.09-.2-.14-.42-.01-.85.16-1.18.38Zm10.22.49c-2.99-.42-6.96-.09-10.78.1-.02.05-.04.1-.04.15,3.2.27,7.15-.09,10.82-.25Zm11.87,4.41s-.05-.04-.07-.07c0,.03,0,.06,0,.09.02,0,.04-.02.07-.02Zm53.45-4.68c-3.53.88-7.9.75-12.28,1.01-1.31-.04-2.64.71-4.39.65-2.19.13-3.51.48-5.27.63l1.3.43c-3.06-.28-4.84.84-7.89.36,0,.2-.45.57-.89.56-2.19.13-4.37-.32-6.13.02-2.19.13-4.37.07-6.14.41-.44-.01-1.33.55-2.21.72-1.07.05-2.14.07-3.21.09.05.05.09.11.13.16.87.03,1.75.04,2.64-.07,2.64-.31,5.71-.62,8.33-.74,6.57-.2,12.71-.8,18.85-1.41,1.32-.16,2.64-.51,3.96-.67,3.96-.67,8.76-.33,11.42-1.62.44-.18,1.32-.16,1.77-.54Zm5.13-8.34c-4.63.7-9.75.93-14.1.64-3.5-.1-13.58.78-11.9,3.17,4.45-4.13,28.91.76,26-3.81Zm36.57-2.53c-1.84.25-3.62.48-5.7.42,1.9-.14,3.8-.28,5.7-.42Zm-18.85,7.42c5.72-1.2,11.85-1.22,17.55-1.84,4.39-.46,9.17.66,13.14-.6,0-.2.01-.39.02-.59l-.44.18c-1.53-.16-2.76-.51-4.04-.71.07-.02.15-.03.23-.04-.13,0-.26.01-.39.02-.86-.13-1.75-.18-2.78-.06-.47.08-.95.16-1.44.23-5.47.19-11.12.32-16.11,1.41-3.08.5-5.73,1.4-8.8,1.9.87.03,2.18.26,3.06.09Z" fill="#d4fc9c"></path><path d="m209.83,223.54c1.9-.18,3.8-.35,5.73-.5,1.49-.2,2.97-.41,4.44-.65,7.05-.84,15.24-.25,22.79-.5.24-.57.28-1.15.03-1.77-8.17-.88-16.38-.07-24.55-.63-.06.02-.13.04-.19.06-3.53,1.07-9.2.51-13.6,1.36-4.41,1.05-8.79,1.31-13.19,2.16,6.32.18,12.33-.06,18.55.47Z" fill="#d4fc9c"></path><path d="m158.58,231.33c1.72-.07,3.44-.13,5.18-.21,4.84-.32,9.14-.78,13.55-1.36-3.22,0-6.45-.02-9.71-.12-3.27.11-6.06,1.02-9.01,1.69Z" fill="#d4fc9c"></path><path d="m180.87,229.27c-1.21.17-2.39.33-3.57.49,4.77-.01,9.51-.11,14.24-.23,7.78-.57,15.57-1.04,23.36-1.84.88-.08,1.76-.14,2.63-.19-14.44-.64-28.83-1.28-41.16.82-.23.04-.48.08-.72.12,5.84.04,11.62-.08,17.38-.22-4.05.3-8.11.62-12.16,1.04Z" fill="#d4fc9c"></path><path d="m208,223.72c.42.02.84.04,1.26.06.49-.05.97-.1,1.45-.16-.29-.03-.59-.05-.88-.08-.61.06-1.23.11-1.84.18Z" fill="#d4fc9c"></path><path d="m195.68,218.3c-.05,0-.11-.02-.16-.02-1.38.07-2.79.13-4.21.17-1.97.3-4.02.54-6.11.71,3.79-.11,7.54-.23,10.49-.86Z" fill="#d4fc9c"></path><path d="m183.7,213.25c-.44-.01-1.31-.04-1.75-.05-.27.11-.54.22-.81.33.41.02.82.05,1.23.07l1.32-.35Z" fill="#d4fc9c"></path><path d="m157.8,215.66c7.77-.54,15.06-1.12,22.28-1.72.35-.13.71-.27,1.06-.41-4.83-.26-9.64-.15-14.1.8-.88.17-2.21.72-3.08.69-4.14.06-8.1.57-12.05,1.02,1.88-.11,3.79-.23,5.73-.37.05,0,.11,0,.16,0Z" fill="#d4fc9c"></path></g></svg>